<mxfile host="app.diagrams.net" modified="2024-02-08T23:00:17.712Z" agent="Mozilla/5.0 (X11; Linux x86_64; rv:123.0) Gecko/20100101 Firefox/123.0" etag="qxEmaifGfCI6QPq1xGo6" version="23.1.2" type="device">
  <diagram name="Page-1" id="oZl6qOF1715ecc37o1_x">
    <mxGraphModel dx="1478" dy="2966" grid="1" gridSize="10" guides="1" tooltips="1" connect="1" arrows="1" fold="0" page="1" pageScale="1" pageWidth="850" pageHeight="1100" math="0" shadow="0">
      <root>
        <mxCell id="0" />
        <mxCell id="1" parent="0" />
        <mxCell id="aIO3nB47ezk3nz23C2y8-13" value="" style="rounded=0;whiteSpace=wrap;html=1;" parent="1" vertex="1">
          <mxGeometry x="70" y="1250" width="120" height="60" as="geometry" />
        </mxCell>
        <mxCell id="aIO3nB47ezk3nz23C2y8-14" value="Analyse des données reçues" style="text;html=1;strokeColor=none;fillColor=none;align=center;verticalAlign=middle;whiteSpace=wrap;rounded=0;" parent="1" vertex="1">
          <mxGeometry x="100" y="1265" width="60" height="30" as="geometry" />
        </mxCell>
        <mxCell id="aIO3nB47ezk3nz23C2y8-145" value="" style="rounded=1;whiteSpace=wrap;html=1;movable=1;resizable=1;rotatable=1;deletable=1;editable=1;locked=0;connectable=1;" parent="1" vertex="1">
          <mxGeometry x="65.5" y="-480" width="1140" height="570" as="geometry" />
        </mxCell>
        <mxCell id="aIO3nB47ezk3nz23C2y8-163" style="edgeStyle=orthogonalEdgeStyle;rounded=0;orthogonalLoop=1;jettySize=auto;html=1;exitX=1;exitY=0.5;exitDx=0;exitDy=0;entryX=0;entryY=0.5;entryDx=0;entryDy=0;" parent="1" source="aIO3nB47ezk3nz23C2y8-164" target="aIO3nB47ezk3nz23C2y8-169" edge="1">
          <mxGeometry relative="1" as="geometry" />
        </mxCell>
        <mxCell id="aIO3nB47ezk3nz23C2y8-164" value="" style="shape=hexagon;perimeter=hexagonPerimeter2;whiteSpace=wrap;html=1;fixedSize=1;" parent="1" vertex="1">
          <mxGeometry x="310.5" y="-228" width="120" height="64" as="geometry" />
        </mxCell>
        <mxCell id="aIO3nB47ezk3nz23C2y8-165" value="Début de l&#39;analyse des données" style="text;html=1;strokeColor=none;fillColor=none;align=center;verticalAlign=middle;whiteSpace=wrap;rounded=0;" parent="1" vertex="1">
          <mxGeometry x="340.5" y="-211" width="60" height="30" as="geometry" />
        </mxCell>
        <mxCell id="aIO3nB47ezk3nz23C2y8-166" style="edgeStyle=orthogonalEdgeStyle;rounded=0;orthogonalLoop=1;jettySize=auto;html=1;exitX=0.5;exitY=1;exitDx=0;exitDy=0;entryX=0.5;entryY=0;entryDx=0;entryDy=0;" parent="1" source="aIO3nB47ezk3nz23C2y8-169" target="aIO3nB47ezk3nz23C2y8-181" edge="1">
          <mxGeometry relative="1" as="geometry" />
        </mxCell>
        <mxCell id="aIO3nB47ezk3nz23C2y8-167" style="edgeStyle=orthogonalEdgeStyle;rounded=0;orthogonalLoop=1;jettySize=auto;html=1;exitX=1;exitY=0.5;exitDx=0;exitDy=0;entryX=0;entryY=0.5;entryDx=0;entryDy=0;" parent="1" source="aIO3nB47ezk3nz23C2y8-169" target="aIO3nB47ezk3nz23C2y8-180" edge="1">
          <mxGeometry relative="1" as="geometry" />
        </mxCell>
        <mxCell id="aIO3nB47ezk3nz23C2y8-168" style="edgeStyle=orthogonalEdgeStyle;rounded=0;orthogonalLoop=1;jettySize=auto;html=1;exitX=1;exitY=1;exitDx=0;exitDy=0;entryX=0;entryY=0.5;entryDx=0;entryDy=0;" parent="1" source="aIO3nB47ezk3nz23C2y8-169" target="aIO3nB47ezk3nz23C2y8-183" edge="1">
          <mxGeometry relative="1" as="geometry" />
        </mxCell>
        <mxCell id="aIO3nB47ezk3nz23C2y8-169" value="" style="rounded=0;whiteSpace=wrap;html=1;" parent="1" vertex="1">
          <mxGeometry x="531" y="-236.25" width="151" height="80" as="geometry" />
        </mxCell>
        <mxCell id="aIO3nB47ezk3nz23C2y8-170" value="évaluation de la structure du fichier et de la qualité des données" style="text;html=1;strokeColor=none;fillColor=none;align=center;verticalAlign=middle;whiteSpace=wrap;rounded=0;" parent="1" vertex="1">
          <mxGeometry x="563.5" y="-210" width="86" height="30" as="geometry" />
        </mxCell>
        <mxCell id="aIO3nB47ezk3nz23C2y8-171" style="edgeStyle=orthogonalEdgeStyle;rounded=0;orthogonalLoop=1;jettySize=auto;html=1;exitX=0.5;exitY=1;exitDx=0;exitDy=0;entryX=0.5;entryY=0;entryDx=0;entryDy=0;" parent="1" source="aIO3nB47ezk3nz23C2y8-172" target="aIO3nB47ezk3nz23C2y8-169" edge="1">
          <mxGeometry relative="1" as="geometry" />
        </mxCell>
        <mxCell id="aIO3nB47ezk3nz23C2y8-172" value="" style="shape=process;whiteSpace=wrap;html=1;backgroundOutline=1;" parent="1" vertex="1">
          <mxGeometry x="403.5" y="-326" width="120" height="60" as="geometry" />
        </mxCell>
        <mxCell id="aIO3nB47ezk3nz23C2y8-173" value="Fichier SQL" style="text;html=1;strokeColor=none;fillColor=none;align=center;verticalAlign=middle;whiteSpace=wrap;rounded=0;" parent="1" vertex="1">
          <mxGeometry x="420.5" y="-311" width="86" height="30" as="geometry" />
        </mxCell>
        <mxCell id="aIO3nB47ezk3nz23C2y8-174" style="edgeStyle=orthogonalEdgeStyle;rounded=0;orthogonalLoop=1;jettySize=auto;html=1;exitX=0.5;exitY=1;exitDx=0;exitDy=0;entryX=0.5;entryY=0;entryDx=0;entryDy=0;" parent="1" source="aIO3nB47ezk3nz23C2y8-175" target="aIO3nB47ezk3nz23C2y8-169" edge="1">
          <mxGeometry relative="1" as="geometry" />
        </mxCell>
        <mxCell id="aIO3nB47ezk3nz23C2y8-175" value="" style="shape=process;whiteSpace=wrap;html=1;backgroundOutline=1;" parent="1" vertex="1">
          <mxGeometry x="546.5" y="-326" width="120" height="60" as="geometry" />
        </mxCell>
        <mxCell id="aIO3nB47ezk3nz23C2y8-176" value="Fichier PDF" style="text;html=1;strokeColor=none;fillColor=none;align=center;verticalAlign=middle;whiteSpace=wrap;rounded=0;" parent="1" vertex="1">
          <mxGeometry x="563.5" y="-311" width="86" height="30" as="geometry" />
        </mxCell>
        <mxCell id="aIO3nB47ezk3nz23C2y8-177" style="edgeStyle=orthogonalEdgeStyle;rounded=0;orthogonalLoop=1;jettySize=auto;html=1;exitX=0.5;exitY=1;exitDx=0;exitDy=0;entryX=0.5;entryY=0;entryDx=0;entryDy=0;" parent="1" source="aIO3nB47ezk3nz23C2y8-178" target="aIO3nB47ezk3nz23C2y8-169" edge="1">
          <mxGeometry relative="1" as="geometry" />
        </mxCell>
        <mxCell id="aIO3nB47ezk3nz23C2y8-178" value="" style="shape=process;whiteSpace=wrap;html=1;backgroundOutline=1;" parent="1" vertex="1">
          <mxGeometry x="685.5" y="-326" width="120" height="60" as="geometry" />
        </mxCell>
        <mxCell id="aIO3nB47ezk3nz23C2y8-179" value="Wikidata" style="text;html=1;strokeColor=none;fillColor=none;align=center;verticalAlign=middle;whiteSpace=wrap;rounded=0;" parent="1" vertex="1">
          <mxGeometry x="702.5" y="-311" width="86" height="30" as="geometry" />
        </mxCell>
        <mxCell id="aIO3nB47ezk3nz23C2y8-180" value="Fin de l&#39;évaluation" style="shape=hexagon;perimeter=hexagonPerimeter2;whiteSpace=wrap;html=1;fixedSize=1;" parent="1" vertex="1">
          <mxGeometry x="758.5" y="-224" width="126" height="55.5" as="geometry" />
        </mxCell>
        <mxCell id="aIO3nB47ezk3nz23C2y8-181" value="" style="shape=hexagon;perimeter=hexagonPerimeter2;whiteSpace=wrap;html=1;fixedSize=1;" parent="1" vertex="1">
          <mxGeometry x="546" y="-106" width="120" height="50" as="geometry" />
        </mxCell>
        <mxCell id="aIO3nB47ezk3nz23C2y8-182" value="Données non validées" style="text;html=1;strokeColor=none;fillColor=none;align=center;verticalAlign=middle;whiteSpace=wrap;rounded=0;" parent="1" vertex="1">
          <mxGeometry x="576" y="-96" width="60" height="30" as="geometry" />
        </mxCell>
        <mxCell id="aIO3nB47ezk3nz23C2y8-183" value="" style="shape=process;whiteSpace=wrap;html=1;backgroundOutline=1;" parent="1" vertex="1">
          <mxGeometry x="751.5" y="-131" width="120" height="60" as="geometry" />
        </mxCell>
        <mxCell id="aIO3nB47ezk3nz23C2y8-184" value="Données valides (restantes)" style="text;html=1;strokeColor=none;fillColor=none;align=center;verticalAlign=middle;whiteSpace=wrap;rounded=0;" parent="1" vertex="1">
          <mxGeometry x="770.5" y="-114" width="86" height="30" as="geometry" />
        </mxCell>
        <mxCell id="aIO3nB47ezk3nz23C2y8-186" value="&lt;b&gt;&lt;font style=&quot;font-size: 18px;&quot;&gt;Détails de l&#39;action d&#39;analyse de données&lt;br&gt;&lt;/font&gt;&lt;/b&gt;" style="text;html=1;strokeColor=none;fillColor=none;align=center;verticalAlign=middle;whiteSpace=wrap;rounded=0;" parent="1" vertex="1">
          <mxGeometry x="111" y="-446" width="347" height="120" as="geometry" />
        </mxCell>
        <mxCell id="iXcxEZcWJ1QKEO0OURPL-1" style="edgeStyle=orthogonalEdgeStyle;rounded=0;orthogonalLoop=1;jettySize=auto;html=1;exitX=1;exitY=0.5;exitDx=0;exitDy=0;entryX=0;entryY=0.5;entryDx=0;entryDy=0;" parent="1" source="iXcxEZcWJ1QKEO0OURPL-2" target="iXcxEZcWJ1QKEO0OURPL-7" edge="1">
          <mxGeometry relative="1" as="geometry" />
        </mxCell>
        <mxCell id="iXcxEZcWJ1QKEO0OURPL-2" value="" style="shape=hexagon;perimeter=hexagonPerimeter2;whiteSpace=wrap;html=1;fixedSize=1;" parent="1" vertex="1">
          <mxGeometry x="467.5" y="-800" width="130" height="50" as="geometry" />
        </mxCell>
        <mxCell id="iXcxEZcWJ1QKEO0OURPL-3" value="Récéption des données" style="text;html=1;strokeColor=none;fillColor=none;align=center;verticalAlign=middle;whiteSpace=wrap;rounded=0;" parent="1" vertex="1">
          <mxGeometry x="502.5" y="-790" width="60" height="30" as="geometry" />
        </mxCell>
        <mxCell id="iXcxEZcWJ1QKEO0OURPL-4" style="edgeStyle=orthogonalEdgeStyle;rounded=0;orthogonalLoop=1;jettySize=auto;html=1;exitX=0.5;exitY=1;exitDx=0;exitDy=0;entryX=0.5;entryY=0;entryDx=0;entryDy=0;" parent="1" source="iXcxEZcWJ1QKEO0OURPL-7" target="iXcxEZcWJ1QKEO0OURPL-9" edge="1">
          <mxGeometry relative="1" as="geometry" />
        </mxCell>
        <mxCell id="iXcxEZcWJ1QKEO0OURPL-5" style="edgeStyle=orthogonalEdgeStyle;rounded=0;orthogonalLoop=1;jettySize=auto;html=1;exitX=1;exitY=0.5;exitDx=0;exitDy=0;entryX=0;entryY=0.5;entryDx=0;entryDy=0;" parent="1" source="iXcxEZcWJ1QKEO0OURPL-7" target="iXcxEZcWJ1QKEO0OURPL-19" edge="1">
          <mxGeometry relative="1" as="geometry" />
        </mxCell>
        <mxCell id="iXcxEZcWJ1QKEO0OURPL-6" style="edgeStyle=orthogonalEdgeStyle;rounded=0;orthogonalLoop=1;jettySize=auto;html=1;exitX=1;exitY=1;exitDx=0;exitDy=0;entryX=0.5;entryY=0;entryDx=0;entryDy=0;" parent="1" source="iXcxEZcWJ1QKEO0OURPL-7" target="iXcxEZcWJ1QKEO0OURPL-56" edge="1">
          <mxGeometry relative="1" as="geometry" />
        </mxCell>
        <mxCell id="iXcxEZcWJ1QKEO0OURPL-7" value="" style="rounded=0;whiteSpace=wrap;html=1;" parent="1" vertex="1">
          <mxGeometry x="707.5" y="-805" width="120" height="60" as="geometry" />
        </mxCell>
        <mxCell id="iXcxEZcWJ1QKEO0OURPL-8" value="Analyse des données reçues" style="text;html=1;strokeColor=none;fillColor=none;align=center;verticalAlign=middle;whiteSpace=wrap;rounded=0;" parent="1" vertex="1">
          <mxGeometry x="737.5" y="-790" width="60" height="30" as="geometry" />
        </mxCell>
        <mxCell id="iXcxEZcWJ1QKEO0OURPL-9" value="" style="shape=hexagon;perimeter=hexagonPerimeter2;whiteSpace=wrap;html=1;fixedSize=1;" parent="1" vertex="1">
          <mxGeometry x="707.5" y="-695" width="120" height="50" as="geometry" />
        </mxCell>
        <mxCell id="iXcxEZcWJ1QKEO0OURPL-10" value="Données non validées" style="text;html=1;strokeColor=none;fillColor=none;align=center;verticalAlign=middle;whiteSpace=wrap;rounded=0;" parent="1" vertex="1">
          <mxGeometry x="737.5" y="-685" width="60" height="30" as="geometry" />
        </mxCell>
        <mxCell id="iXcxEZcWJ1QKEO0OURPL-11" value="" style="verticalLabelPosition=bottom;verticalAlign=top;html=1;shape=mxgraph.basic.no_symbol" parent="1" vertex="1">
          <mxGeometry x="747.5" y="-615" width="40" height="40" as="geometry" />
        </mxCell>
        <mxCell id="iXcxEZcWJ1QKEO0OURPL-12" style="edgeStyle=orthogonalEdgeStyle;rounded=0;orthogonalLoop=1;jettySize=auto;html=1;exitX=0.5;exitY=1;exitDx=0;exitDy=0;entryX=0.5;entryY=0;entryDx=0;entryDy=0;entryPerimeter=0;" parent="1" source="iXcxEZcWJ1QKEO0OURPL-9" target="iXcxEZcWJ1QKEO0OURPL-11" edge="1">
          <mxGeometry relative="1" as="geometry" />
        </mxCell>
        <mxCell id="iXcxEZcWJ1QKEO0OURPL-13" style="edgeStyle=orthogonalEdgeStyle;rounded=0;orthogonalLoop=1;jettySize=auto;html=1;exitX=1;exitY=0.5;exitDx=0;exitDy=0;entryX=0;entryY=0.5;entryDx=0;entryDy=0;" parent="1" source="iXcxEZcWJ1QKEO0OURPL-16" target="iXcxEZcWJ1QKEO0OURPL-35" edge="1">
          <mxGeometry relative="1" as="geometry" />
        </mxCell>
        <mxCell id="iXcxEZcWJ1QKEO0OURPL-14" style="edgeStyle=orthogonalEdgeStyle;rounded=0;orthogonalLoop=1;jettySize=auto;html=1;exitX=0.5;exitY=1;exitDx=0;exitDy=0;entryX=0.5;entryY=0;entryDx=0;entryDy=0;" parent="1" source="iXcxEZcWJ1QKEO0OURPL-16" target="iXcxEZcWJ1QKEO0OURPL-36" edge="1">
          <mxGeometry relative="1" as="geometry" />
        </mxCell>
        <mxCell id="iXcxEZcWJ1QKEO0OURPL-15" style="edgeStyle=orthogonalEdgeStyle;rounded=0;orthogonalLoop=1;jettySize=auto;html=1;exitX=1;exitY=1;exitDx=0;exitDy=0;entryX=0.5;entryY=0;entryDx=0;entryDy=0;" parent="1" source="iXcxEZcWJ1QKEO0OURPL-16" target="iXcxEZcWJ1QKEO0OURPL-54" edge="1">
          <mxGeometry relative="1" as="geometry" />
        </mxCell>
        <mxCell id="iXcxEZcWJ1QKEO0OURPL-16" value="" style="rounded=0;whiteSpace=wrap;html=1;" parent="1" vertex="1">
          <mxGeometry x="1072.5" y="-828" width="145" height="105" as="geometry" />
        </mxCell>
        <mxCell id="iXcxEZcWJ1QKEO0OURPL-17" value="Extraction et vérification des des données reçues à l&#39;aide d&#39;une requête SPARQL" style="text;html=1;strokeColor=none;fillColor=none;align=center;verticalAlign=middle;whiteSpace=wrap;rounded=0;" parent="1" vertex="1">
          <mxGeometry x="1102.5" y="-794" width="86" height="30" as="geometry" />
        </mxCell>
        <mxCell id="iXcxEZcWJ1QKEO0OURPL-18" style="edgeStyle=orthogonalEdgeStyle;rounded=0;orthogonalLoop=1;jettySize=auto;html=1;exitX=1;exitY=0.5;exitDx=0;exitDy=0;entryX=0;entryY=0.5;entryDx=0;entryDy=0;" parent="1" source="iXcxEZcWJ1QKEO0OURPL-19" target="iXcxEZcWJ1QKEO0OURPL-16" edge="1">
          <mxGeometry relative="1" as="geometry" />
        </mxCell>
        <mxCell id="iXcxEZcWJ1QKEO0OURPL-19" value="" style="shape=hexagon;perimeter=hexagonPerimeter2;whiteSpace=wrap;html=1;fixedSize=1;" parent="1" vertex="1">
          <mxGeometry x="887.5" y="-800" width="130" height="50" as="geometry" />
        </mxCell>
        <mxCell id="iXcxEZcWJ1QKEO0OURPL-20" value="Fin analyse" style="text;html=1;strokeColor=none;fillColor=none;align=center;verticalAlign=middle;whiteSpace=wrap;rounded=0;" parent="1" vertex="1">
          <mxGeometry x="922.5" y="-790" width="60" height="30" as="geometry" />
        </mxCell>
        <mxCell id="iXcxEZcWJ1QKEO0OURPL-21" style="edgeStyle=orthogonalEdgeStyle;rounded=0;orthogonalLoop=1;jettySize=auto;html=1;exitX=0.5;exitY=1;exitDx=0;exitDy=0;entryX=0.5;entryY=0;entryDx=0;entryDy=0;" parent="1" source="iXcxEZcWJ1QKEO0OURPL-22" target="iXcxEZcWJ1QKEO0OURPL-16" edge="1">
          <mxGeometry relative="1" as="geometry" />
        </mxCell>
        <mxCell id="iXcxEZcWJ1QKEO0OURPL-22" value="" style="shape=process;whiteSpace=wrap;html=1;backgroundOutline=1;" parent="1" vertex="1">
          <mxGeometry x="1085.5" y="-1044" width="120" height="60" as="geometry" />
        </mxCell>
        <mxCell id="iXcxEZcWJ1QKEO0OURPL-23" value="BDD au format RDF" style="text;html=1;strokeColor=none;fillColor=none;align=center;verticalAlign=middle;whiteSpace=wrap;rounded=0;" parent="1" vertex="1">
          <mxGeometry x="1102.5" y="-1029" width="86" height="30" as="geometry" />
        </mxCell>
        <mxCell id="iXcxEZcWJ1QKEO0OURPL-24" style="edgeStyle=orthogonalEdgeStyle;rounded=0;orthogonalLoop=1;jettySize=auto;html=1;exitX=1;exitY=0.5;exitDx=0;exitDy=0;entryX=0;entryY=0.5;entryDx=0;entryDy=0;" parent="1" source="iXcxEZcWJ1QKEO0OURPL-25" target="iXcxEZcWJ1QKEO0OURPL-47" edge="1">
          <mxGeometry relative="1" as="geometry" />
        </mxCell>
        <mxCell id="iXcxEZcWJ1QKEO0OURPL-25" value="" style="rounded=0;whiteSpace=wrap;html=1;" parent="1" vertex="1">
          <mxGeometry x="1566.5" y="-806" width="146" height="60" as="geometry" />
        </mxCell>
        <mxCell id="iXcxEZcWJ1QKEO0OURPL-26" value="Transformation des données en format RDF" style="text;html=1;strokeColor=none;fillColor=none;align=center;verticalAlign=middle;whiteSpace=wrap;rounded=0;" parent="1" vertex="1">
          <mxGeometry x="1596.5" y="-793" width="86" height="30" as="geometry" />
        </mxCell>
        <mxCell id="iXcxEZcWJ1QKEO0OURPL-27" value="" style="shape=process;whiteSpace=wrap;html=1;backgroundOutline=1;" parent="1" vertex="1">
          <mxGeometry x="2097.5" y="-957" width="120" height="60" as="geometry" />
        </mxCell>
        <mxCell id="iXcxEZcWJ1QKEO0OURPL-28" value="BDD au format RDF" style="text;html=1;strokeColor=none;fillColor=none;align=center;verticalAlign=middle;whiteSpace=wrap;rounded=0;" parent="1" vertex="1">
          <mxGeometry x="2114.5" y="-942" width="86" height="30" as="geometry" />
        </mxCell>
        <mxCell id="iXcxEZcWJ1QKEO0OURPL-29" style="edgeStyle=orthogonalEdgeStyle;rounded=0;orthogonalLoop=1;jettySize=auto;html=1;exitX=0.5;exitY=0;exitDx=0;exitDy=0;entryX=0.5;entryY=1;entryDx=0;entryDy=0;" parent="1" source="iXcxEZcWJ1QKEO0OURPL-31" target="iXcxEZcWJ1QKEO0OURPL-27" edge="1">
          <mxGeometry relative="1" as="geometry" />
        </mxCell>
        <mxCell id="iXcxEZcWJ1QKEO0OURPL-30" style="edgeStyle=orthogonalEdgeStyle;rounded=0;orthogonalLoop=1;jettySize=auto;html=1;exitX=0.5;exitY=1;exitDx=0;exitDy=0;entryX=0.5;entryY=0;entryDx=0;entryDy=0;" parent="1" source="iXcxEZcWJ1QKEO0OURPL-31" target="iXcxEZcWJ1QKEO0OURPL-33" edge="1">
          <mxGeometry relative="1" as="geometry" />
        </mxCell>
        <mxCell id="iXcxEZcWJ1QKEO0OURPL-31" value="" style="rounded=0;whiteSpace=wrap;html=1;" parent="1" vertex="1">
          <mxGeometry x="2077.5" y="-816" width="160" height="80" as="geometry" />
        </mxCell>
        <mxCell id="iXcxEZcWJ1QKEO0OURPL-32" value="Insertion des nouvelles données dans la BDD" style="text;html=1;strokeColor=none;fillColor=none;align=center;verticalAlign=middle;whiteSpace=wrap;rounded=0;" parent="1" vertex="1">
          <mxGeometry x="2110.5" y="-787" width="86" height="30" as="geometry" />
        </mxCell>
        <mxCell id="iXcxEZcWJ1QKEO0OURPL-33" value="Fin du processus de traitement et d&#39;insertion des données" style="shape=hexagon;perimeter=hexagonPerimeter2;whiteSpace=wrap;html=1;fixedSize=1;" parent="1" vertex="1">
          <mxGeometry x="2083.5" y="-652" width="146" height="70" as="geometry" />
        </mxCell>
        <mxCell id="iXcxEZcWJ1QKEO0OURPL-34" style="edgeStyle=orthogonalEdgeStyle;rounded=0;orthogonalLoop=1;jettySize=auto;html=1;exitX=1;exitY=0.5;exitDx=0;exitDy=0;entryX=0;entryY=0.5;entryDx=0;entryDy=0;" parent="1" source="iXcxEZcWJ1QKEO0OURPL-35" target="iXcxEZcWJ1QKEO0OURPL-25" edge="1">
          <mxGeometry relative="1" as="geometry" />
        </mxCell>
        <mxCell id="iXcxEZcWJ1QKEO0OURPL-35" value="Fin extraction" style="shape=hexagon;perimeter=hexagonPerimeter2;whiteSpace=wrap;html=1;fixedSize=1;" parent="1" vertex="1">
          <mxGeometry x="1317.5" y="-804.75" width="160" height="58.5" as="geometry" />
        </mxCell>
        <mxCell id="iXcxEZcWJ1QKEO0OURPL-36" value="Fichier contenant des données non valides (fichier BAD)" style="shape=hexagon;perimeter=hexagonPerimeter2;whiteSpace=wrap;html=1;fixedSize=1;" parent="1" vertex="1">
          <mxGeometry x="1065.5" y="-673.5" width="160" height="58.5" as="geometry" />
        </mxCell>
        <mxCell id="iXcxEZcWJ1QKEO0OURPL-37" style="edgeStyle=orthogonalEdgeStyle;rounded=0;orthogonalLoop=1;jettySize=auto;html=1;exitX=0.5;exitY=1;exitDx=0;exitDy=0;entryX=0.5;entryY=0;entryDx=0;entryDy=0;" parent="1" source="iXcxEZcWJ1QKEO0OURPL-38" target="iXcxEZcWJ1QKEO0OURPL-7" edge="1">
          <mxGeometry relative="1" as="geometry" />
        </mxCell>
        <mxCell id="iXcxEZcWJ1QKEO0OURPL-38" value="" style="shape=process;whiteSpace=wrap;html=1;backgroundOutline=1;" parent="1" vertex="1">
          <mxGeometry x="565.5" y="-1045" width="120" height="60" as="geometry" />
        </mxCell>
        <mxCell id="iXcxEZcWJ1QKEO0OURPL-39" value="Fichier SQL" style="text;html=1;strokeColor=none;fillColor=none;align=center;verticalAlign=middle;whiteSpace=wrap;rounded=0;" parent="1" vertex="1">
          <mxGeometry x="582.5" y="-1030" width="86" height="30" as="geometry" />
        </mxCell>
        <mxCell id="iXcxEZcWJ1QKEO0OURPL-40" style="edgeStyle=orthogonalEdgeStyle;rounded=0;orthogonalLoop=1;jettySize=auto;html=1;exitX=0.5;exitY=1;exitDx=0;exitDy=0;entryX=0.5;entryY=0;entryDx=0;entryDy=0;" parent="1" source="iXcxEZcWJ1QKEO0OURPL-41" target="iXcxEZcWJ1QKEO0OURPL-7" edge="1">
          <mxGeometry relative="1" as="geometry" />
        </mxCell>
        <mxCell id="iXcxEZcWJ1QKEO0OURPL-41" value="" style="shape=process;whiteSpace=wrap;html=1;backgroundOutline=1;" parent="1" vertex="1">
          <mxGeometry x="708.5" y="-1045" width="120" height="60" as="geometry" />
        </mxCell>
        <mxCell id="iXcxEZcWJ1QKEO0OURPL-42" value="Fichier PDF" style="text;html=1;strokeColor=none;fillColor=none;align=center;verticalAlign=middle;whiteSpace=wrap;rounded=0;" parent="1" vertex="1">
          <mxGeometry x="725.5" y="-1030" width="86" height="30" as="geometry" />
        </mxCell>
        <mxCell id="iXcxEZcWJ1QKEO0OURPL-43" style="edgeStyle=orthogonalEdgeStyle;rounded=0;orthogonalLoop=1;jettySize=auto;html=1;exitX=0.5;exitY=1;exitDx=0;exitDy=0;entryX=0.5;entryY=0;entryDx=0;entryDy=0;" parent="1" source="iXcxEZcWJ1QKEO0OURPL-44" target="iXcxEZcWJ1QKEO0OURPL-7" edge="1">
          <mxGeometry relative="1" as="geometry" />
        </mxCell>
        <mxCell id="iXcxEZcWJ1QKEO0OURPL-44" value="" style="shape=process;whiteSpace=wrap;html=1;backgroundOutline=1;" parent="1" vertex="1">
          <mxGeometry x="847.5" y="-1045" width="120" height="60" as="geometry" />
        </mxCell>
        <mxCell id="iXcxEZcWJ1QKEO0OURPL-45" value="Wikidata" style="text;html=1;strokeColor=none;fillColor=none;align=center;verticalAlign=middle;whiteSpace=wrap;rounded=0;" parent="1" vertex="1">
          <mxGeometry x="864.5" y="-1030" width="86" height="30" as="geometry" />
        </mxCell>
        <mxCell id="iXcxEZcWJ1QKEO0OURPL-46" style="edgeStyle=orthogonalEdgeStyle;rounded=0;orthogonalLoop=1;jettySize=auto;html=1;exitX=1;exitY=0.5;exitDx=0;exitDy=0;entryX=0;entryY=0.5;entryDx=0;entryDy=0;" parent="1" source="iXcxEZcWJ1QKEO0OURPL-47" target="iXcxEZcWJ1QKEO0OURPL-31" edge="1">
          <mxGeometry relative="1" as="geometry" />
        </mxCell>
        <mxCell id="iXcxEZcWJ1QKEO0OURPL-47" value="Transformation des données au format RDF réussie" style="shape=hexagon;perimeter=hexagonPerimeter2;whiteSpace=wrap;html=1;fixedSize=1;" parent="1" vertex="1">
          <mxGeometry x="1797.5" y="-805.25" width="200" height="59.25" as="geometry" />
        </mxCell>
        <mxCell id="iXcxEZcWJ1QKEO0OURPL-48" value="Transformation des données non réussies" style="shape=hexagon;perimeter=hexagonPerimeter2;whiteSpace=wrap;html=1;fixedSize=1;" parent="1" vertex="1">
          <mxGeometry x="1525.5" y="-685" width="242" height="48.5" as="geometry" />
        </mxCell>
        <mxCell id="iXcxEZcWJ1QKEO0OURPL-49" style="edgeStyle=orthogonalEdgeStyle;rounded=0;orthogonalLoop=1;jettySize=auto;html=1;exitX=0.5;exitY=1;exitDx=0;exitDy=0;entryX=0.473;entryY=0.039;entryDx=0;entryDy=0;entryPerimeter=0;" parent="1" source="iXcxEZcWJ1QKEO0OURPL-25" target="iXcxEZcWJ1QKEO0OURPL-48" edge="1">
          <mxGeometry relative="1" as="geometry" />
        </mxCell>
        <mxCell id="iXcxEZcWJ1QKEO0OURPL-50" value="&lt;b&gt;&lt;font style=&quot;font-size: 18px;&quot;&gt;Processus de traitement et d&#39;insertion de données&lt;br&gt;&lt;/font&gt;&lt;/b&gt;" style="text;html=1;strokeColor=none;fillColor=none;align=center;verticalAlign=middle;whiteSpace=wrap;rounded=0;" parent="1" vertex="1">
          <mxGeometry x="280" y="-1220" width="347" height="120" as="geometry" />
        </mxCell>
        <mxCell id="iXcxEZcWJ1QKEO0OURPL-51" value="" style="shape=process;whiteSpace=wrap;html=1;backgroundOutline=1;" parent="1" vertex="1">
          <mxGeometry x="1837.5" y="-957" width="120" height="60" as="geometry" />
        </mxCell>
        <mxCell id="iXcxEZcWJ1QKEO0OURPL-52" value="Fichier non-BAD" style="text;html=1;strokeColor=none;fillColor=none;align=center;verticalAlign=middle;whiteSpace=wrap;rounded=0;" parent="1" vertex="1">
          <mxGeometry x="1854.5" y="-942" width="86" height="30" as="geometry" />
        </mxCell>
        <mxCell id="iXcxEZcWJ1QKEO0OURPL-53" value="" style="endArrow=classic;html=1;rounded=0;entryX=0.5;entryY=0;entryDx=0;entryDy=0;exitX=0.5;exitY=1;exitDx=0;exitDy=0;" parent="1" source="iXcxEZcWJ1QKEO0OURPL-51" target="iXcxEZcWJ1QKEO0OURPL-47" edge="1">
          <mxGeometry width="50" height="50" relative="1" as="geometry">
            <mxPoint x="1717" y="-840" as="sourcePoint" />
            <mxPoint x="1767" y="-890" as="targetPoint" />
          </mxGeometry>
        </mxCell>
        <mxCell id="iXcxEZcWJ1QKEO0OURPL-54" value="" style="shape=process;whiteSpace=wrap;html=1;backgroundOutline=1;" parent="1" vertex="1">
          <mxGeometry x="1309.5" y="-682" width="140" height="75" as="geometry" />
        </mxCell>
        <mxCell id="iXcxEZcWJ1QKEO0OURPL-55" value="Fichier contenant des données valides (non BAD)" style="text;html=1;strokeColor=none;fillColor=none;align=center;verticalAlign=middle;whiteSpace=wrap;rounded=0;" parent="1" vertex="1">
          <mxGeometry x="1336" y="-656.5" width="86" height="30" as="geometry" />
        </mxCell>
        <mxCell id="iXcxEZcWJ1QKEO0OURPL-56" value="" style="shape=process;whiteSpace=wrap;html=1;backgroundOutline=1;" parent="1" vertex="1">
          <mxGeometry x="873.5" y="-640" width="153.5" height="90" as="geometry" />
        </mxCell>
        <mxCell id="iXcxEZcWJ1QKEO0OURPL-57" value="Fichier contenant des données valides (post fitrage des données)" style="text;html=1;strokeColor=none;fillColor=none;align=center;verticalAlign=middle;whiteSpace=wrap;rounded=0;" parent="1" vertex="1">
          <mxGeometry x="903.5" y="-607" width="86.5" height="25" as="geometry" />
        </mxCell>
        <mxCell id="iXcxEZcWJ1QKEO0OURPL-58" style="edgeStyle=orthogonalEdgeStyle;rounded=0;orthogonalLoop=1;jettySize=auto;html=1;exitX=0.5;exitY=1;exitDx=0;exitDy=0;entryX=0.5;entryY=0;entryDx=0;entryDy=0;" parent="1" source="iXcxEZcWJ1QKEO0OURPL-59" target="iXcxEZcWJ1QKEO0OURPL-16" edge="1">
          <mxGeometry relative="1" as="geometry" />
        </mxCell>
        <mxCell id="iXcxEZcWJ1QKEO0OURPL-59" value="" style="shape=process;whiteSpace=wrap;html=1;backgroundOutline=1;" parent="1" vertex="1">
          <mxGeometry x="1225.5" y="-1060" width="121.5" height="75" as="geometry" />
        </mxCell>
        <mxCell id="iXcxEZcWJ1QKEO0OURPL-60" value="Données valides (restantes)" style="text;html=1;strokeColor=none;fillColor=none;align=center;verticalAlign=middle;whiteSpace=wrap;rounded=0;" parent="1" vertex="1">
          <mxGeometry x="1242.5" y="-1036" width="86" height="30" as="geometry" />
        </mxCell>
        <mxCell id="iXcxEZcWJ1QKEO0OURPL-75" value="Détail du processus d&#39;extraction et vérification des données" style="swimlane;childLayout=stackLayout;resizeParent=1;resizeParentMax=0;horizontal=1;startSize=20;horizontalStack=0;html=1;rounded=1;shadow=0;strokeColor=default;align=center;verticalAlign=middle;fontFamily=Helvetica;fontSize=12;fontColor=default;fillColor=default;" parent="1" vertex="1">
          <mxGeometry x="1710" y="-1890" width="632.5" height="480" as="geometry" />
        </mxCell>
        <mxCell id="iXcxEZcWJ1QKEO0OURPL-76" value="Fonction 1" style="swimlane;startSize=20;horizontal=0;html=1;rounded=1;shadow=0;strokeColor=default;align=center;verticalAlign=middle;fontFamily=Helvetica;fontSize=12;fontColor=default;fillColor=default;" parent="iXcxEZcWJ1QKEO0OURPL-75" vertex="1">
          <mxGeometry y="20" width="632.5" height="120" as="geometry" />
        </mxCell>
        <mxCell id="iXcxEZcWJ1QKEO0OURPL-79" value="&lt;strong&gt;Fonction 1 : Lecture des données à partir du fichier source&lt;/strong&gt;" style="text;html=1;align=center;verticalAlign=middle;resizable=0;points=[];autosize=1;strokeColor=none;fillColor=none;fontFamily=Helvetica;fontSize=12;fontColor=default;" parent="iXcxEZcWJ1QKEO0OURPL-76" vertex="1">
          <mxGeometry x="35" y="10" width="360" height="30" as="geometry" />
        </mxCell>
        <mxCell id="iXcxEZcWJ1QKEO0OURPL-86" value="&lt;div align=&quot;left&quot;&gt;&lt;br&gt;&lt;/div&gt;" style="text;html=1;align=center;verticalAlign=middle;resizable=0;points=[];autosize=1;strokeColor=none;fillColor=none;fontFamily=Helvetica;fontSize=12;fontColor=default;" parent="iXcxEZcWJ1QKEO0OURPL-76" vertex="1">
          <mxGeometry x="205" y="40" width="20" height="30" as="geometry" />
        </mxCell>
        <mxCell id="iXcxEZcWJ1QKEO0OURPL-89" value="&lt;div align=&quot;left&quot;&gt;Cette fonction implique la lecture des données à partir du fichier &lt;br&gt;source (Données valides dans le schéma ) contenant les informations valides à extraire. &lt;br&gt;&lt;/div&gt;" style="text;html=1;align=left;verticalAlign=middle;resizable=0;points=[];autosize=1;strokeColor=none;fillColor=none;fontFamily=Helvetica;fontSize=12;fontColor=default;" parent="iXcxEZcWJ1QKEO0OURPL-76" vertex="1">
          <mxGeometry x="42.5" y="50" width="490" height="40" as="geometry" />
        </mxCell>
        <mxCell id="iXcxEZcWJ1QKEO0OURPL-77" value="Fonction 2" style="swimlane;startSize=20;horizontal=0;html=1;rounded=1;shadow=0;strokeColor=default;align=center;verticalAlign=middle;fontFamily=Helvetica;fontSize=12;fontColor=default;fillColor=default;" parent="iXcxEZcWJ1QKEO0OURPL-75" vertex="1">
          <mxGeometry y="140" width="632.5" height="170" as="geometry" />
        </mxCell>
        <mxCell id="iXcxEZcWJ1QKEO0OURPL-90" value="&lt;strong&gt;Fonction 2 : &lt;/strong&gt;&lt;strong&gt;Comparaison des données avec la base de données RDF&lt;/strong&gt;" style="text;html=1;align=center;verticalAlign=middle;resizable=0;points=[];autosize=1;strokeColor=none;fillColor=none;fontFamily=Helvetica;fontSize=12;fontColor=default;" parent="iXcxEZcWJ1QKEO0OURPL-77" vertex="1">
          <mxGeometry x="37" y="20" width="420" height="30" as="geometry" />
        </mxCell>
        <mxCell id="iXcxEZcWJ1QKEO0OURPL-91" value="&lt;div align=&quot;left&quot;&gt;Cette fonction implique la lecture des données à partir du fichier &lt;br&gt;source (Données valides dans le schéma ) contenant les informations valides à extraire. &lt;br&gt;&lt;/div&gt;" style="text;html=1;align=left;verticalAlign=middle;resizable=0;points=[];autosize=1;strokeColor=none;fillColor=none;fontFamily=Helvetica;fontSize=12;fontColor=default;" parent="iXcxEZcWJ1QKEO0OURPL-77" vertex="1">
          <mxGeometry x="45" y="70" width="490" height="40" as="geometry" />
        </mxCell>
        <mxCell id="iXcxEZcWJ1QKEO0OURPL-78" value="Fonction 3" style="swimlane;startSize=20;horizontal=0;html=1;rounded=1;shadow=0;strokeColor=default;align=center;verticalAlign=middle;fontFamily=Helvetica;fontSize=12;fontColor=default;fillColor=default;" parent="iXcxEZcWJ1QKEO0OURPL-75" vertex="1">
          <mxGeometry y="310" width="632.5" height="170" as="geometry" />
        </mxCell>
        <mxCell id="IAhK-Rx2mI7RS0HDJ9JF-1" value="&lt;strong&gt;Fonction 3 : &lt;/strong&gt;&lt;strong&gt;Séparation des données&lt;/strong&gt;" style="text;html=1;align=center;verticalAlign=middle;resizable=0;points=[];autosize=1;strokeColor=none;fillColor=none;fontFamily=Helvetica;fontSize=12;fontColor=default;" vertex="1" parent="iXcxEZcWJ1QKEO0OURPL-78">
          <mxGeometry x="45" y="10" width="230" height="30" as="geometry" />
        </mxCell>
        <mxCell id="IAhK-Rx2mI7RS0HDJ9JF-3" value="Cette fonction sépare les données en fonction du résultat de la &lt;br/&gt;comparaison. &lt;br&gt;Les données déjà présentes dans la base RDF seront &lt;br/&gt;considérées comme des doublons et &lt;br&gt;seront placées dans un fichier BAD, &lt;br/&gt;tandis que les nouvelles données seront placées dans &lt;br&gt;un autre fichier &lt;br/&gt;pour traitement ultérieur." style="text;html=1;align=left;verticalAlign=middle;resizable=0;points=[];autosize=1;strokeColor=none;fillColor=none;fontFamily=Helvetica;fontSize=12;fontColor=default;" vertex="1" parent="iXcxEZcWJ1QKEO0OURPL-78">
          <mxGeometry x="50" y="30" width="360" height="130" as="geometry" />
        </mxCell>
        <mxCell id="iXcxEZcWJ1QKEO0OURPL-94" value="Fonction 4" style="swimlane;startSize=20;horizontal=0;html=1;rounded=1;shadow=0;strokeColor=default;align=center;verticalAlign=middle;fontFamily=Helvetica;fontSize=12;fontColor=default;fillColor=default;" parent="1" vertex="1">
          <mxGeometry x="1710" y="-1410" width="632.5" height="170" as="geometry" />
        </mxCell>
        <mxCell id="IAhK-Rx2mI7RS0HDJ9JF-4" value="&lt;strong&gt;Fonction 4 : &lt;/strong&gt;&lt;strong&gt;Enregistrement des données&lt;/strong&gt;" style="text;html=1;align=center;verticalAlign=middle;resizable=0;points=[];autosize=1;strokeColor=none;fillColor=none;fontFamily=Helvetica;fontSize=12;fontColor=default;" vertex="1" parent="iXcxEZcWJ1QKEO0OURPL-94">
          <mxGeometry x="35" y="20" width="260" height="30" as="geometry" />
        </mxCell>
        <mxCell id="IAhK-Rx2mI7RS0HDJ9JF-5" value="Cette fonction enregistre les données séparées dans les fichiers &lt;br/&gt;correspondants. &lt;br&gt;Les données considérées comme des doublons sont &lt;br/&gt;enregistrées dans un fichier BAD,&lt;br&gt; tandis que les nouvelles données sont &lt;br/&gt;enregistrées dans un autre fichier." style="text;html=1;align=left;verticalAlign=middle;resizable=0;points=[];autosize=1;strokeColor=none;fillColor=none;fontFamily=Helvetica;fontSize=12;fontColor=default;" vertex="1" parent="iXcxEZcWJ1QKEO0OURPL-94">
          <mxGeometry x="46" y="48" width="360" height="100" as="geometry" />
        </mxCell>
      </root>
    </mxGraphModel>
  </diagram>
</mxfile>
